<svg width="161" height="41" viewBox="0 0 161 41" fill="none" xmlns="http://www.w3.org/2000/svg">
<g id="137acf8e49c2981192beacd5fe5ab3618f7d2932-227x57 1">
<g id="Group">
<path id="Vector" d="M86.3821 24.0797V31.0385C85.1701 31.0385 84.0261 31.0572 82.8821 31.0136C82.7522 31.0074 82.542 30.6529 82.5358 30.4602C82.4925 29.0112 82.4863 27.5622 82.4863 26.1132C82.4925 21.7228 82.5111 17.3261 82.5049 12.9294C82.5049 12.4133 82.6347 12.2578 83.1727 12.264C87.3962 12.2827 91.6197 12.264 95.8555 12.2578C96.443 12.2578 96.9439 12.4008 97.3272 12.9108C97.8714 13.6322 98.4898 14.3038 99.0339 15.0376C99.2256 15.2988 99.374 15.6533 99.3802 15.9704C99.4235 17.2204 99.4606 18.4766 99.3802 19.7203C99.3431 20.1868 99.0525 20.6718 98.7742 21.076C98.3599 21.6793 97.8467 22.2203 97.3829 22.78C97.1294 23.0723 97.117 23.2837 97.4447 23.576C97.9456 24.0362 98.3785 24.571 98.8299 25.0871C99.2689 25.5846 99.4421 26.1692 99.4297 26.8471C99.405 28.0473 99.4483 29.2537 99.405 30.4539C99.405 30.6281 99.1391 30.9328 98.9783 30.9452C98.0013 31.0136 97.0119 31.0385 96.0348 31.0261C95.8864 31.0261 95.6082 30.7587 95.6267 30.6529C95.973 28.4826 94.3714 27.3259 93.1965 25.9578C93.0296 25.7712 92.8317 25.6157 92.6956 25.4167C91.9536 24.2974 90.9209 23.9367 89.6038 24.0673C88.5464 24.1668 87.4951 24.0859 86.3821 24.0797ZM90.6983 20.7464C91.8732 20.7464 93.0543 20.7838 94.2292 20.7216C94.6126 20.7029 95.0331 20.4728 95.3546 20.2303C96.4986 19.3534 96.2389 18.0599 95.9792 16.9716C95.8308 16.3684 95.0207 15.5289 94.458 15.4978C91.9412 15.3485 89.3997 15.4418 86.8768 15.4418C86.5057 15.4418 86.3573 15.5724 86.3573 15.958C86.3635 17.3572 86.3759 18.7564 86.3511 20.1557C86.345 20.6594 86.549 20.7713 87.019 20.7589C88.2434 20.7278 89.4677 20.7464 90.6983 20.7464Z" fill="black"/>
<path id="Vector_2" d="M26.319 14.1801C25.7996 13.4649 25.342 12.8431 24.8906 12.215C24.4639 11.6428 24.0063 11.0894 23.6538 10.4799C23.3137 9.89537 23.0107 9.95756 22.6583 10.4053C21.8544 11.4252 21.0505 12.4451 20.259 13.4774C18.8553 15.3306 17.4268 17.1713 16.0788 19.0618C14.9905 20.5854 14.1742 22.2459 13.8527 24.1301C13.4383 26.5866 14.8977 30.4982 16.8827 31.9285C16.6415 30.038 16.9692 28.334 18.0143 26.5928C17.3836 31.9534 19.9683 35.355 24.1856 37.9358C23.7775 37.9607 23.3818 38.0229 22.9798 38.0105C17.8783 37.9047 13.3394 35.6971 11.138 30.5728C9.19632 26.0766 10.0497 21.9038 12.7767 18.0606C14.8173 15.1813 17.0187 12.414 19.1892 9.62797C20.5805 7.8494 21.6627 5.92158 22.4418 3.80719C22.5779 3.42163 22.9118 3.09825 23.1406 2.75C23.3941 3.11691 23.7466 3.4465 23.8765 3.85072C24.6123 6.26361 25.9542 8.34068 27.4321 10.3307C27.8464 10.9028 28.0381 11.3941 27.6114 12.0346C27.1909 12.6814 26.8075 13.3717 26.319 14.1801Z" fill="url(#paint0_linear_566_3281)"/>
<path id="Vector_3" d="M101.587 30.9392C101.568 30.678 101.525 30.4417 101.537 30.1991C101.544 24.5089 101.574 18.8125 101.562 13.1224C101.562 12.3885 101.741 12.2269 102.514 12.2393C106.317 12.3015 110.127 12.3015 113.936 12.2393C115.24 12.2206 116.205 12.4507 117.052 13.6261C117.899 14.8077 118.648 15.8773 118.394 17.3947C118.332 17.7553 118.332 18.1409 118.394 18.4954C118.802 20.7341 117.448 22.1831 116.063 23.5761C115.76 23.8746 115.16 23.9928 114.702 24.0052C112.322 24.055 109.941 24.0612 107.56 24.0488C105.39 24.0425 105.39 24.0239 105.396 26.1942C105.402 27.6183 105.439 29.0424 105.421 30.4603C105.421 30.622 105.198 30.9143 105.068 30.9143C103.943 30.9578 102.817 30.9392 101.587 30.9392ZM105.47 20.7093C107.987 20.7093 110.411 20.6906 112.835 20.7155C114.041 20.7279 114.758 20.3299 115.036 19.1421C115.203 18.4581 115.166 17.6745 115.018 16.9718C114.82 16.0701 113.96 15.4109 113.28 15.4109C111.005 15.4109 108.717 15.4171 106.435 15.4233C106.132 15.4233 105.829 15.4544 105.476 15.4731V20.7093H105.47Z" fill="black"/>
<path id="Vector_4" d="M29.4786 12.918C30.7834 14.6717 32.1871 16.4378 33.4423 18.3034C34.2833 19.5596 35.1243 20.8842 35.6005 22.3021C37.134 26.8294 35.922 30.7472 32.5272 34.0121C30.8761 35.6103 28.8293 36.5928 26.6155 37.1588C26.2198 37.2583 25.6632 37.1774 25.3108 36.9722C22.862 35.5294 21.3717 33.3404 20.6297 30.6353C20.0608 28.5644 20.1535 26.5309 21.2975 24.6652C22.3982 22.868 23.567 21.1143 24.779 19.3855C26.2631 17.2462 27.8399 15.1629 29.4786 12.918ZM32.8178 25.6291C33.0404 22.9364 31.4512 20.9713 29.8929 18.9999C29.627 18.6641 29.3364 18.6641 29.0705 19.0683C28.7489 19.5596 28.3841 20.0198 28.0501 20.5049C26.9 22.1466 25.7127 23.7635 24.6244 25.4426C23.839 26.6552 23.6288 28.0172 23.9318 29.4661C24.2348 30.884 25.0325 32.0096 25.8735 33.1352C26.2692 33.67 26.7145 33.8193 27.2525 33.4586C28.3099 32.7496 29.4415 32.1153 30.3443 31.2385C31.8655 29.746 33.0961 28.0234 32.8178 25.6291Z" fill="url(#paint1_linear_566_3281)"/>
<path id="Vector_5" d="M63.0514 12.282H66.7678C66.7926 12.4996 66.8482 12.7546 66.8482 13.0096C66.8482 16.3988 66.8111 19.788 66.8482 23.171C66.8482 23.6748 67.0152 24.2655 67.2996 24.6636C67.8191 25.3725 68.4313 26.0317 69.0991 26.5976C70.1874 27.5242 73.4462 27.1511 74.5346 26.2431C76.0434 24.9807 76.5319 23.5069 76.4144 21.5479C76.2413 18.7308 76.3773 15.9013 76.3773 13.078C76.3773 12.8168 76.3773 12.5556 76.3773 12.3068H80.1432C80.1432 13.0966 80.1432 13.8304 80.1432 14.558C80.1432 17.6239 80.0628 20.7022 80.1803 23.7618C80.2421 25.4596 79.7042 26.7468 78.4489 27.8351C77.6759 28.5068 77.0575 29.3587 76.2598 30.0055C75.7404 30.4346 75.0478 30.8512 74.4047 30.901C72.5682 31.0378 70.7192 31.0502 68.8827 30.9756C68.3014 30.9507 67.6336 30.5963 67.1945 30.192C65.9887 29.11 64.8138 27.9782 63.7811 26.7406C63.3297 26.2058 63.0947 25.3663 63.0638 24.6511C62.9587 22.7171 63.0143 20.7706 63.002 18.8303C63.002 16.7906 63.002 14.757 63.002 12.7173C63.002 12.5805 63.0391 12.4374 63.0638 12.2695L63.0514 12.282Z" fill="black"/>
<path id="Vector_6" d="M116.348 30.9649C116.416 30.7161 116.459 30.5109 116.539 30.3119C118.827 24.8642 121.19 19.4477 123.36 13.9565C123.917 12.5635 124.553 12.0163 126 12.2588C126.613 12.3645 127.274 12.1966 127.905 12.2526C128.183 12.2774 128.573 12.4951 128.678 12.7252C130.341 16.6555 131.949 20.6044 133.594 24.5409C134.441 26.5744 135.332 28.5893 136.197 30.6228C136.222 30.685 136.204 30.7659 136.216 31.0146C134.936 31.0146 133.668 31.0333 132.407 30.996C132.252 30.9897 132.036 30.7099 131.968 30.5171C131.43 29.149 130.935 27.7622 130.385 26.4003C130.292 26.1888 129.946 25.9587 129.711 25.9525C127.466 25.9214 125.234 25.9525 123.001 25.9401C122.445 25.9401 122.179 26.1329 122 26.6739C121.567 27.9923 121.047 29.292 120.546 30.5917C120.497 30.741 120.293 30.9462 120.157 30.9524C118.914 30.9773 117.665 30.9649 116.348 30.9649ZM129.247 23.3095C128.245 20.6541 127.305 18.1853 126.384 15.7164C126.297 15.7164 126.211 15.7164 126.13 15.7226C125.289 17.9676 124.461 20.2126 123.576 22.5819C125.524 22.8369 127.311 23.067 129.247 23.3095Z" fill="black"/>
<path id="Vector_7" d="M42.9414 30.9662C43.5474 29.4613 44.1163 28.0123 44.7223 26.5695C46.0147 23.4726 47.3195 20.3819 48.6181 17.2849C49.2426 15.7924 49.8301 14.2875 50.4855 12.8136C50.6092 12.5586 51.0112 12.2912 51.3018 12.2788C52.3839 12.2166 53.4661 12.285 54.5421 12.2477C54.9687 12.229 55.1419 12.3721 55.2965 12.7514C57.6957 18.5473 60.1074 24.3308 62.5314 30.1205C62.618 30.3381 62.7293 30.5495 62.8963 30.8978C62.4696 30.9413 62.1418 30.9973 61.8203 31.0035C61.0844 31.0222 60.3424 30.9724 59.6127 31.0284C58.9881 31.0781 58.6666 30.8605 58.4625 30.2759C58.0482 29.0446 57.5597 27.8444 57.1392 26.6193C56.9661 26.1342 56.7125 25.929 56.1807 25.9352C53.9732 25.9725 51.7594 25.9788 49.5518 25.9725C49.0324 25.9725 48.7788 26.1342 48.6181 26.6628C48.2099 27.9439 47.7276 29.1939 47.2515 30.4501C47.1711 30.6491 46.967 30.9476 46.8124 30.9476C45.5509 30.9849 44.308 30.9662 42.9414 30.9662ZM55.8839 23.3233C54.8698 20.6617 53.9175 18.1555 52.9776 15.6556C52.891 15.668 52.8106 15.6742 52.7364 15.6867C52.4149 16.5822 52.1057 17.4715 51.7656 18.3608C51.3513 19.4801 50.8937 20.5871 50.5041 21.7189C50.4113 21.9987 50.0712 22.5149 50.6772 22.6144C52.3592 22.8942 54.0535 23.087 55.8839 23.3233Z" fill="black"/>
<path id="Vector_8" d="M132.6 12.2578C134.547 12.2578 136.359 12.264 138.177 12.2578C138.629 12.2578 138.79 12.4817 138.913 12.8983C139.513 14.9692 140.131 17.0276 140.768 19.0922C140.898 19.5213 141.09 19.9256 141.244 20.3422C141.325 20.336 141.393 20.3298 141.461 20.3236C141.541 20.137 141.653 19.9629 141.702 19.7701C142.37 17.4878 143.019 15.2055 143.73 12.9357C143.811 12.662 144.188 12.2951 144.429 12.2889C146.297 12.2392 148.17 12.2703 150.031 12.2827C150.1 12.2827 150.161 12.3387 150.335 12.4133C149.84 13.2901 149.376 14.1608 148.869 15.0065C147.138 17.9169 145.388 20.8024 143.693 23.7252C143.458 24.1232 143.415 24.6643 143.409 25.1431C143.372 26.9092 143.372 28.6816 143.415 30.4477C143.421 30.9017 143.248 31.0074 142.871 31.0074C141.968 31.0136 141.053 31.0074 140.144 31.0447C139.674 31.0634 139.562 30.8768 139.562 30.4415C139.569 28.6754 139.587 26.903 139.519 25.1369C139.494 24.5337 139.309 23.8745 139.006 23.3521C136.965 19.8323 134.869 16.3435 132.791 12.8424C132.711 12.7118 132.686 12.5377 132.6 12.2578Z" fill="black"/>
</g>
</g>
<defs>
<linearGradient id="paint0_linear_566_3281" x1="18.9747" y1="2.40815" x2="18.9747" y2="37.671" gradientUnits="userSpaceOnUse">
<stop offset="0.0902" stop-color="#FFA248"/>
<stop offset="0.2621" stop-color="#E965A4"/>
<stop offset="0.5636" stop-color="#538EF8"/>
<stop offset="0.632" stop-color="#4FA0F7"/>
<stop offset="0.7895" stop-color="#48C4F5"/>
<stop offset="0.9178" stop-color="#44DAF3"/>
<stop offset="1" stop-color="#42E2F3"/>
</linearGradient>
<linearGradient id="paint1_linear_566_3281" x1="28.2644" y1="37.9523" x2="28.2644" y2="14.286" gradientUnits="userSpaceOnUse">
<stop stop-color="#718FFF"/>
<stop offset="1" stop-color="#57E6FF"/>
</linearGradient>
</defs>
</svg>
