<svg width="126" height="47" viewBox="0 0 126 47" fill="none" xmlns="http://www.w3.org/2000/svg">
<path d="M12.656 17H0.44V0.92H12.656V2.48H2.144V8.144H12.296V9.68H2.144V15.44H12.656V17ZM20.7056 17.24C16.9136 17.24 14.4416 14.672 14.4416 11.072C14.4416 7.472 16.9136 4.904 20.7056 4.904C24.0176 4.904 26.6096 6.872 26.6096 9.728V9.92H24.9296V9.776C24.9296 7.664 23.3936 6.464 20.6816 6.464C17.5136 6.464 16.1456 8.168 16.1456 11.072C16.1456 13.976 17.5136 15.68 20.6816 15.68C23.3936 15.68 24.9296 14.48 24.9296 12.368V12.224H26.6096V12.416C26.6096 15.272 24.0176 17.24 20.7056 17.24ZM34.7011 17.24C30.8371 17.24 28.2691 14.672 28.2691 11.072C28.2691 7.472 30.8371 4.904 34.7011 4.904C38.5891 4.904 41.1571 7.472 41.1571 11.072C41.1571 14.672 38.5891 17.24 34.7011 17.24ZM34.7011 15.704C37.9651 15.704 39.4771 13.952 39.4771 11.072C39.4771 8.216 37.9651 6.44 34.7011 6.44C31.4371 6.44 29.9491 8.216 29.9491 11.072C29.9491 13.952 31.4371 15.704 34.7011 15.704ZM48.6324 17.24C44.9844 17.24 42.8724 15.776 42.8724 13.04V12.992H44.5764V13.136C44.5764 15.128 45.7524 15.824 48.6564 15.824C51.3204 15.824 52.2324 15.2 52.2324 13.832C52.2324 12.584 51.4884 12.176 49.5204 11.864L46.3524 11.408C44.1924 11.12 42.8244 10.28 42.8244 8.312C42.8244 6.224 44.8164 4.904 48.0804 4.904C51.4884 4.904 53.6964 6.344 53.6964 9.128V9.176H51.9924V9.056C51.9924 7.28 51.0564 6.32 48.0324 6.32C45.5364 6.32 44.5044 6.92 44.5044 8.336C44.5044 9.56 45.1284 9.992 47.0964 10.28L50.0004 10.688C52.5444 11.048 53.9124 11.912 53.9124 13.832C53.9124 16.064 51.7044 17.24 48.6324 17.24ZM57.7109 21.08H56.2229V19.52H58.0229C59.2229 19.52 59.6789 19.16 60.1349 18.176L60.7109 16.976L54.8309 5.144H56.7029L60.1829 12.2L61.5029 15.104H61.6469L62.9189 12.176L66.2069 5.144H68.0789L61.6469 18.656C60.7829 20.48 59.6789 21.08 57.7109 21.08ZM74.9293 17.24C71.2812 17.24 69.1693 15.776 69.1693 13.04V12.992H70.8733V13.136C70.8733 15.128 72.0493 15.824 74.9533 15.824C77.6173 15.824 78.5293 15.2 78.5293 13.832C78.5293 12.584 77.7853 12.176 75.8173 11.864L72.6493 11.408C70.4893 11.12 69.1213 10.28 69.1213 8.312C69.1213 6.224 71.1133 4.904 74.3773 4.904C77.7853 4.904 79.9933 6.344 79.9933 9.128V9.176H78.2893V9.056C78.2893 7.28 77.3533 6.32 74.3293 6.32C71.8333 6.32 70.8013 6.92 70.8013 8.336C70.8013 9.56 71.4253 9.992 73.3933 10.28L76.2973 10.688C78.8413 11.048 80.2093 11.912 80.2093 13.832C80.2093 16.064 78.0013 17.24 74.9293 17.24ZM89.7198 17H87.1518C84.7998 17 83.2878 16.016 83.2878 13.232V6.608H81.1758V5.144H83.2878V2.312H85.0158V5.144H89.7198V6.608H85.0158V13.328C85.0158 14.984 85.8318 15.44 87.5598 15.44H89.7198V17ZM97.2284 17.24C93.4124 17.24 90.9884 14.84 90.9884 11.072C90.9884 7.472 93.3884 4.904 97.2044 4.904C100.684 4.904 103.156 6.92 103.156 10.448C103.156 10.88 103.108 11.24 103.036 11.552H92.5964C92.6924 14.216 94.0604 15.824 97.2044 15.824C99.9884 15.824 101.284 14.792 101.284 13.064V12.896H102.988V13.064C102.988 15.536 100.54 17.24 97.2284 17.24ZM97.1804 6.32C94.1084 6.32 92.7164 7.904 92.5964 10.496H101.548C101.548 10.376 101.548 10.256 101.548 10.136C101.548 7.64 99.9644 6.32 97.1804 6.32ZM107.121 17H105.417V5.144H106.953V8.72H107.049C107.385 6.728 108.753 4.904 111.705 4.904C114.345 4.904 115.833 6.536 116.217 8.84H116.337C116.673 6.8 118.089 4.904 121.065 4.904C124.161 4.904 125.769 7.088 125.769 10.088V17H124.065V10.328C124.065 7.688 122.937 6.464 120.441 6.464C117.585 6.464 116.433 8.12 116.433 11.264V17H114.729V10.328C114.729 7.688 113.625 6.464 111.129 6.464C108.249 6.464 107.121 8.12 107.121 11.264V17ZM2.144 46H0.44V29.92H7.832C11.312 29.92 13.76 31.912 13.76 35.344C13.76 38.8 11.312 40.792 7.832 40.792H2.144V46ZM7.688 31.48H2.144V39.232H7.688C10.52 39.232 12.032 38.08 12.032 35.344C12.032 32.656 10.52 31.48 7.688 31.48ZM18.8921 46.24C16.5641 46.24 14.9801 45.136 14.9801 43.216C14.9801 41.272 16.5881 40.432 18.7961 40.192L24.4361 39.568V38.656C24.4361 36.352 23.4281 35.44 20.8361 35.44C18.2921 35.44 16.9481 36.352 16.9481 38.44V38.536H15.2441V38.44C15.2441 35.944 17.3081 33.904 20.9561 33.904C24.5561 33.904 26.0921 35.968 26.0921 38.584V46H24.5561V42.808H24.4361C23.7401 44.992 21.6521 46.24 18.8921 46.24ZM16.6841 43.096C16.6841 44.296 17.4761 44.92 19.2761 44.92C22.1561 44.92 24.4361 43.648 24.4361 40.792V40.696L19.3241 41.272C17.5481 41.44 16.6841 41.872 16.6841 43.096ZM30.5971 46H28.8931V34.144H30.4291V37.384H30.5491C30.9091 35.488 32.2531 33.904 34.7251 33.904C37.4611 33.904 38.6611 35.92 38.6611 38.128V39.304H36.9571V38.392C36.9571 36.376 36.1171 35.392 34.0531 35.392C31.6531 35.392 30.5971 36.904 30.5971 39.568V46ZM47.9073 46H45.3393C42.9873 46 41.4753 45.016 41.4753 42.232V35.608H39.3633V34.144H41.4753V31.312H43.2033V34.144H47.9073V35.608H43.2033V42.328C43.2033 43.984 44.0193 44.44 45.7473 44.44H47.9073V46ZM51.4799 46H49.7759V34.144H51.3119V37.864H51.4319C51.8399 35.848 53.5199 33.904 56.4719 33.904C59.8079 33.904 61.4639 36.28 61.4639 39.088V46H59.7599V39.328C59.7599 36.88 58.5839 35.464 55.8719 35.464C52.9919 35.464 51.4799 37.216 51.4799 40.264V46ZM69.8769 46.24C66.0609 46.24 63.6369 43.84 63.6369 40.072C63.6369 36.472 66.0369 33.904 69.8529 33.904C73.3329 33.904 75.8049 35.92 75.8049 39.448C75.8049 39.88 75.7569 40.24 75.6849 40.552H65.2449C65.3409 43.216 66.7089 44.824 69.8529 44.824C72.6369 44.824 73.9329 43.792 73.9329 42.064V41.896H75.6369V42.064C75.6369 44.536 73.1889 46.24 69.8769 46.24ZM69.8289 35.32C66.7569 35.32 65.3649 36.904 65.2449 39.496H74.1969C74.1969 39.376 74.1969 39.256 74.1969 39.136C74.1969 36.64 72.6129 35.32 69.8289 35.32ZM79.769 46H78.065V34.144H79.601V37.384H79.721C80.081 35.488 81.425 33.904 83.897 33.904C86.633 33.904 87.833 35.92 87.833 38.128V39.304H86.129V38.392C86.129 36.376 85.289 35.392 83.225 35.392C80.825 35.392 79.769 36.904 79.769 39.568V46ZM95.0152 46.24C91.3672 46.24 89.2552 44.776 89.2552 42.04V41.992H90.9592V42.136C90.9592 44.128 92.1352 44.824 95.0392 44.824C97.7032 44.824 98.6152 44.2 98.6152 42.832C98.6152 41.584 97.8712 41.176 95.9032 40.864L92.7352 40.408C90.5752 40.12 89.2072 39.28 89.2072 37.312C89.2072 35.224 91.1992 33.904 94.4632 33.904C97.8712 33.904 100.079 35.344 100.079 38.128V38.176H98.3752V38.056C98.3752 36.28 97.4392 35.32 94.4152 35.32C91.9192 35.32 90.8872 35.92 90.8872 37.336C90.8872 38.56 91.5112 38.992 93.4792 39.28L96.3832 39.688C98.9272 40.048 100.295 40.912 100.295 42.832C100.295 45.064 98.0872 46.24 95.0152 46.24ZM103.926 37.48H101.814V34.144H103.926V37.48ZM103.926 46H101.814V42.664H103.926V46Z" fill="#1C1B22"/>
</svg>
