<svg width="186" height="55" viewBox="0 0 186 55" fill="none" xmlns="http://www.w3.org/2000/svg">
<g id="Frame 2147224852">
<g id="Group">
<path id="Vector" d="M88.4309 35.9076C88.4309 36.0688 88.4309 36.2238 88.4309 36.3788C88.4309 39.379 88.4185 42.373 88.4433 45.367C88.4433 45.8443 88.3007 46.0055 87.8295 45.9931C87.042 45.9621 86.2484 45.9745 85.4733 45.9931C85.0951 45.9993 84.9648 45.8877 84.9648 45.4848C84.9648 36.2672 84.9648 27.0434 84.9648 17.8258C84.9648 17.3981 85.1013 17.2307 85.5229 17.2431C86.0995 17.2617 86.67 17.2555 87.2466 17.2431C87.5381 17.2369 87.6869 17.3609 87.7489 17.6585C87.8667 18.2039 88.0093 18.737 88.1519 19.2701C88.1891 19.4003 88.3131 19.5057 88.3937 19.6235C88.4991 19.5367 88.6355 19.4623 88.7099 19.3631C89.6152 18.2225 90.8181 17.5221 92.1884 17.0944C93.8812 16.5551 95.6049 16.5799 97.3224 17.0634C99.164 17.5903 100.559 18.7184 101.576 20.3177C102.878 22.3385 103.418 24.5887 103.455 26.969C103.473 28.3823 103.424 29.7833 103.089 31.1594C102.413 33.8683 101.142 36.1866 98.5749 37.5379C97.1984 38.2632 95.6855 38.4925 94.1478 38.4058C92.6473 38.319 91.2212 37.9223 89.9811 37.0234C89.6276 36.7693 89.3362 36.4283 89.0076 36.1308C88.8836 36.0192 88.741 35.9262 88.6045 35.8271C88.5363 35.8643 88.4929 35.8891 88.4309 35.9076ZM88.1643 27.5455C88.3007 28.5869 88.3937 29.5601 88.5797 30.5209C88.8898 32.2194 89.733 33.5831 91.1219 34.6493C92.9015 36.013 95.9273 35.7837 97.5643 34.4261C98.8044 33.4033 99.381 32.0024 99.6724 30.4961C100.181 27.936 100.088 25.3945 99.1144 22.9274C98.699 21.8798 98.0293 20.9686 97.0806 20.4355C95.2143 19.3879 93.2673 19.2329 91.3824 20.4169C89.9687 21.2971 89.0696 22.5927 88.6665 24.1672C88.3875 25.2767 88.3193 26.4483 88.1643 27.5455Z" fill="black"/>
<path id="Vector_2" d="M74.8953 28.4937C72.6507 28.4937 70.4061 28.4937 68.1677 28.4937C67.4547 28.4937 67.3369 28.6796 67.4485 29.3987C67.6903 30.9112 68.1677 32.3121 69.1784 33.4837C70.0651 34.5003 71.1936 35.083 72.5267 35.2132C73.5932 35.3123 74.6658 35.2813 75.6765 34.897C76.8112 34.4693 77.6607 33.6759 78.1443 32.5911C78.5846 31.6117 78.5288 31.5869 79.5704 31.5869C80.1595 31.5869 80.7547 31.6055 81.3438 31.5807C81.784 31.5621 81.9514 31.7728 81.815 32.1386C81.505 32.9444 81.226 33.775 80.7919 34.5065C80.2215 35.4797 79.4216 36.2855 78.4358 36.862C77.5429 37.3827 76.6252 37.8476 75.5959 37.9964C74.7279 38.1204 73.8536 38.2754 72.9793 38.2568C69.9845 38.1824 67.5601 36.9674 65.8177 34.5003C63.8646 31.7356 63.4305 28.6301 63.8522 25.3447C64.0134 24.074 64.3048 22.8466 64.8505 21.6874C65.5821 20.1501 66.6424 18.898 68.0871 17.9744C69.7427 16.9144 71.5842 16.4185 73.525 16.4867C76.0548 16.5734 78.3179 17.4351 80.0231 19.4125C80.8726 20.3981 81.4492 21.5325 81.8646 22.7722C82.4165 24.4397 82.4537 26.1319 82.4041 27.8552C82.3917 28.3635 82.2119 28.4999 81.7406 28.4937C79.4588 28.4751 77.1895 28.4875 74.9139 28.4875L74.8953 28.4937ZM73.0847 25.6174C74.7527 25.6174 76.4144 25.6174 78.0885 25.6174C78.6776 25.6174 78.8326 25.5059 78.721 24.9294C78.566 24.0864 78.3862 23.2309 78.0761 22.4313C77.6793 21.3837 76.929 20.5902 75.9369 20.0385C74.6968 19.3567 73.3575 19.3195 72.0306 19.5302C71.1936 19.6604 70.4061 20.0138 69.7489 20.584C68.4653 21.6688 67.7585 23.0574 67.5663 24.7186C67.4609 25.6236 67.4423 25.6174 68.3661 25.6174C69.9411 25.6174 71.5098 25.6174 73.0847 25.6174Z" fill="black"/>
<path id="Vector_3" d="M117.268 28.497C114.999 28.497 112.717 28.497 110.435 28.497C109.822 28.497 109.722 28.6086 109.778 29.2223C109.97 31.1067 110.628 32.7742 112.091 34.0387C112.965 34.8012 113.994 35.1793 115.173 35.2351C116.543 35.3033 117.833 35.1235 119.004 34.3425C119.854 33.7846 120.375 32.9973 120.679 32.0613C120.784 31.7204 120.958 31.5778 121.305 31.5778C122.105 31.584 122.905 31.584 123.711 31.5778C124.064 31.5716 124.176 31.7266 124.126 32.0613C123.971 33.0345 123.531 33.8899 122.991 34.6896C121.77 36.5244 119.99 37.51 117.876 38.0245C116.183 38.4398 114.528 38.3655 112.878 37.9191C110.863 37.3675 109.294 36.1463 108.085 34.4788C107.019 32.9973 106.448 31.3236 106.182 29.5074C105.952 27.9329 106.008 26.3646 106.238 24.8149C106.703 21.8395 108.036 19.3662 110.714 17.8165C112.68 16.6759 114.794 16.273 117.076 16.6387C118.936 16.9301 120.542 17.6615 121.888 18.9447C122.706 19.7257 123.314 20.6741 123.785 21.7093C124.709 23.7487 124.783 25.9059 124.703 28.0941C124.684 28.5094 124.455 28.5156 124.145 28.5156C121.851 28.5094 119.563 28.5156 117.268 28.5156V28.497ZM115.445 25.6208C117.132 25.6208 118.812 25.6084 120.499 25.627C120.914 25.6332 121.044 25.4658 121.038 25.0753C121.02 23.8169 120.654 22.6516 119.978 21.6164C118.291 19.0625 114.739 18.8765 112.544 20.2464C110.801 21.3436 110.051 23.0545 109.84 25.0381C109.791 25.4534 109.946 25.6332 110.392 25.627C112.079 25.6146 113.765 25.6208 115.445 25.6208Z" fill="black"/>
<path id="Vector_4" d="M138.27 28.5C136.02 28.5 133.756 28.5 131.493 28.5C130.867 28.5 130.799 28.5682 130.836 29.1757C130.979 31.1035 131.667 32.8082 133.155 34.0727C134.717 35.3807 136.547 35.4674 138.438 35.0645C139.603 34.8166 140.496 34.1719 141.16 33.2111C141.383 32.8826 141.557 32.4982 141.681 32.1139C141.798 31.773 141.96 31.5808 142.338 31.5808C143.156 31.587 143.975 31.587 144.793 31.5808C145.128 31.5808 145.265 31.6986 145.178 32.0643C144.582 34.5376 143.107 36.2919 140.819 37.3829C139.058 38.2197 137.179 38.4863 135.276 38.2073C132.659 37.823 130.551 36.546 129.038 34.3207C127.5 32.0643 127.054 29.5476 127.122 26.8759C127.153 25.444 127.333 24.0369 127.804 22.6856C128.517 20.671 129.757 19.0717 131.586 17.9125C132.994 17.0199 134.544 16.617 136.162 16.5116C137.638 16.4124 139.052 16.6976 140.416 17.274C141.947 17.9125 143.163 18.9229 144.055 20.2866C145.345 22.2765 145.872 24.4956 145.742 26.8635C145.723 27.2231 145.705 27.5888 145.723 27.9421C145.742 28.3698 145.581 28.5124 145.147 28.5124C142.853 28.4876 140.558 28.5 138.27 28.5ZM136.429 25.6238C138.122 25.6238 139.827 25.6176 141.532 25.63C141.929 25.63 142.108 25.4812 142.09 25.0845C142.04 23.7704 141.705 22.5368 140.924 21.4644C139.548 19.5676 137.427 19.1027 135.176 19.6048C132.423 20.2185 131.103 22.7228 130.861 25.0597C130.824 25.475 130.966 25.6424 131.406 25.6424C133.081 25.6114 134.755 25.6238 136.429 25.6238Z" fill="black"/>
<path id="Vector_5" d="M26.0163 23.4252C26.0163 18.8071 26.0163 14.189 26.0039 9.57093C26.0039 9.15561 26.1031 8.98824 26.5558 9.00064C27.399 9.03163 28.2609 9.01304 29.1042 9.00684C29.439 9.00684 29.5878 9.12461 29.5878 9.50274C29.5754 18.6583 29.5754 27.8139 29.5754 36.9633C29.5754 37.1245 29.625 37.3229 29.5568 37.4468C29.4514 37.6328 29.2592 37.8807 29.0918 37.8931C28.1989 37.9365 27.2936 37.9303 26.3946 37.8993C26.2705 37.8993 26.1031 37.701 26.0411 37.5584C25.9729 37.4406 26.0101 37.2671 26.0101 37.1245C26.0163 32.5622 26.0163 27.9937 26.0163 23.4252Z" fill="black"/>
<path id="Vector_6" d="M148.397 27.5147C148.397 24.3038 148.397 21.0928 148.397 17.888C148.397 17.107 148.415 17.0822 149.184 17.0822C149.606 17.0822 150.034 17.1008 150.455 17.076C150.92 17.0512 151.113 17.2868 151.199 17.6897C151.317 18.2476 151.441 18.8055 151.553 19.3633C151.627 19.7105 151.801 19.8159 152.161 19.6795C152.88 19.4005 153.624 19.1464 154.356 18.8922C155.453 18.5079 156.538 18.1298 157.629 17.7393C157.964 17.6215 158.293 17.4789 158.64 17.3735C158.95 17.2744 159.148 17.3425 159.248 17.7145C159.39 18.2476 159.595 18.7683 159.775 19.289C159.874 19.5431 159.874 19.7105 159.57 19.8283C158.609 20.2188 157.654 20.6341 156.693 21.0432C155.93 21.3656 155.174 21.6941 154.399 22.0164C153.742 22.2954 153.097 22.6053 152.427 22.8533C151.993 23.0144 151.82 23.2438 151.82 23.7149C151.832 28.2028 151.832 32.6907 151.832 37.1786C151.832 37.6745 151.59 37.9225 151.113 37.9163C150.437 37.9163 149.767 37.9163 149.091 37.9163C148.409 37.9163 148.391 37.8915 148.391 37.191C148.391 34.8355 148.391 32.4738 148.391 30.1182C148.391 29.2504 148.391 28.3826 148.391 27.5147H148.397Z" fill="black"/>
<path id="Vector_7" d="M36.7186 27.5022C36.7186 30.7255 36.7186 33.9489 36.7186 37.1723C36.7186 37.8727 36.6814 37.9161 35.9684 37.9161C35.2491 37.9161 34.5236 37.8975 33.8044 37.9223C33.3517 37.9347 33.1471 37.7674 33.1719 37.2962C33.1905 36.5276 33.1719 35.7589 33.1719 34.9903C33.1719 29.2936 33.1719 23.5969 33.1719 17.9003C33.1719 17.1006 33.2029 17.082 34.009 17.082C34.6663 17.082 35.3173 17.082 35.9746 17.082C36.6876 17.082 36.7372 17.1254 36.7372 17.8321C36.7372 21.0554 36.7372 24.2788 36.7372 27.5022H36.7186Z" fill="black"/>
<path id="Vector_8" d="M42.3162 20.9823C41.7458 20.9823 41.1815 20.9761 40.6049 20.9823C40.3135 20.9885 40.1895 20.8707 40.1895 20.5794C40.1895 19.4016 40.1895 18.2239 40.1895 17.0461C40.1895 16.7795 40.3135 16.668 40.5739 16.668C41.7458 16.6742 42.9301 16.6742 44.1082 16.668C44.4182 16.668 44.505 16.8167 44.505 17.0957C44.4926 18.2363 44.4864 19.3892 44.505 20.5298C44.505 20.8645 44.3872 21.0009 44.04 20.9885C43.4695 20.9699 42.8929 20.9823 42.3286 20.9823H42.3162Z" fill="black"/>
<path id="Vector_9" d="M61.8987 18.8493C61.8987 19.4071 61.8863 19.9588 61.8987 20.5167C61.8987 20.8453 61.7436 20.9878 61.4274 20.9878C60.3113 20.9816 59.2014 20.9816 58.0854 20.9878C57.7071 20.9878 57.5645 20.8267 57.5769 20.4547C57.5955 19.3576 57.5955 18.2666 57.5769 17.1694C57.5769 16.8347 57.7195 16.6859 58.0419 16.6797C59.189 16.6797 60.3361 16.6797 61.477 16.6797C61.7746 16.6797 61.9111 16.8285 61.9111 17.1384C61.8925 17.7087 61.9111 18.279 61.9111 18.8555H61.8987V18.8493Z" fill="black"/>
<path id="Vector_10" d="M51.0664 38.3262C50.4774 38.3262 49.8945 38.32 49.3055 38.3262C48.9892 38.3324 48.8652 38.2022 48.8652 37.8861C48.8776 36.7579 48.8776 35.6298 48.8652 34.5016C48.8652 34.142 49.0078 34.0119 49.3551 34.0119C50.4712 34.0243 51.5811 34.0243 52.6971 34.0119C53.0754 34.0057 53.1684 34.1854 53.1684 34.5202C53.156 35.6484 53.1684 36.7765 53.1808 37.9047C53.1808 38.2332 53.0382 38.3386 52.7405 38.3324C52.1825 38.32 51.6245 38.3324 51.0664 38.3324V38.3262Z" fill="black"/>
<path id="Vector_11" d="M53.1683 18.8555C53.1683 19.4133 53.1683 19.965 53.1683 20.5229C53.1807 20.8515 53.0629 20.994 52.7156 20.994C51.5871 20.9816 50.4648 20.9816 49.3364 20.994C48.9891 20.994 48.8651 20.8577 48.8713 20.5229C48.8713 19.3948 48.8713 18.2666 48.8713 17.1384C48.8713 16.8285 48.9891 16.6859 49.2929 16.6859C50.4462 16.6859 51.6119 16.6859 52.7714 16.6797C53.0629 16.6797 53.1869 16.8037 53.1745 17.095C53.1621 17.6839 53.1745 18.2728 53.1745 18.8617L53.1683 18.8555Z" fill="black"/>
<path id="Vector_12" d="M46.6398 29.643C46.0693 29.643 45.5051 29.6368 44.9284 29.6492C44.6308 29.6553 44.5254 29.5438 44.5254 29.2462C44.5378 28.0871 44.5378 26.9279 44.5254 25.7687C44.5254 25.4774 44.6246 25.3534 44.9222 25.3596C46.1065 25.3658 47.2784 25.3658 48.4565 25.3596C48.7231 25.3596 48.8409 25.4588 48.8409 25.7377C48.8285 26.9155 48.8285 28.0933 48.8409 29.2648C48.8409 29.581 48.6859 29.6553 48.4069 29.6492C47.8117 29.6368 47.2288 29.643 46.6398 29.643Z" fill="black"/>
<path id="Vector_13" d="M53.225 27.5025C53.225 26.9323 53.2374 26.362 53.2126 25.7855C53.2126 25.4941 53.3304 25.3578 53.6156 25.3578C54.7875 25.3578 55.9656 25.3578 57.1499 25.3516C57.4475 25.3516 57.5467 25.5003 57.5343 25.7793C57.5343 26.9199 57.5343 28.0666 57.5343 29.2072C57.5343 29.5295 57.3979 29.6411 57.0941 29.6349C55.9656 29.6287 54.8433 29.6225 53.7148 29.6349C53.3304 29.6349 53.194 29.4861 53.2126 29.1018C53.2436 28.5749 53.225 28.0356 53.225 27.5025Z" fill="black"/>
<path id="Vector_14" d="M35.2005 9.01202C35.6903 9.01202 36.1801 9.01822 36.6762 9.01202C36.9738 9.00582 37.1288 9.09261 37.1164 9.42734C37.104 10.4253 37.104 11.4233 37.1164 12.4152C37.1288 12.8181 36.9614 12.9544 36.5584 12.942C35.6407 12.9173 34.7292 12.9235 33.8116 12.942C33.3589 12.9482 33.1543 12.8057 33.1667 12.3222C33.1977 11.3738 33.1853 10.4253 33.1667 9.47693C33.1543 9.1236 33.3093 9.01202 33.6317 9.01822C34.1588 9.01822 34.6796 9.01822 35.2005 9.01202Z" fill="black"/>
</g>
</g>
</svg>
