<svg width="30" height="31" viewBox="0 0 30 31" fill="none" xmlns="http://www.w3.org/2000/svg">
<path d="M18.7897 12.1348C20.1297 12.1348 21.4149 12.6671 22.3625 13.6147C23.31 14.5622 23.8424 15.8474 23.8424 17.1875V23.0823H20.4739V17.1875C20.4739 16.7408 20.2964 16.3124 19.9806 15.9965C19.6647 15.6807 19.2363 15.5032 18.7897 15.5032C18.343 15.5032 17.9146 15.6807 17.5987 15.9965C17.2829 16.3124 17.1054 16.7408 17.1054 17.1875V23.0823H13.7369V17.1875C13.7369 15.8474 14.2693 14.5622 15.2168 13.6147C16.1644 12.6671 17.4496 12.1348 18.7897 12.1348ZM7 12.9769H10.3685V23.0823H7V12.9769Z" stroke="white" stroke-width="1.5" stroke-linecap="round" stroke-linejoin="round"/>
<path d="M8.68424 10.4505C9.61441 10.4505 10.3685 9.69644 10.3685 8.76627C10.3685 7.83609 9.61441 7.08203 8.68424 7.08203C7.75406 7.08203 7 7.83609 7 8.76627C7 9.69644 7.75406 10.4505 8.68424 10.4505Z" stroke="white" stroke-width="1.5" stroke-linecap="round" stroke-linejoin="round"/>
</svg>
