<svg width="186" height="55" viewBox="0 0 186 55" fill="none" xmlns="http://www.w3.org/2000/svg">
<g id="Frame 2147224854">
<g id="Group">
<path id="Vector" d="M58.7773 41.0021V16.1917C59.0897 16.1724 59.3574 16.1467 59.6251 16.1467C62.8313 16.1467 66.0376 16.1145 69.2438 16.166C71.87 16.211 74.2539 16.9 75.9686 19.1409C78.3079 22.1995 78.4736 29.9202 73.1321 31.9807C71.768 32.5087 70.2318 32.6182 68.7594 32.7856C67.6247 32.908 66.471 32.8114 65.2025 32.8114V41.0021H58.7773ZM65.2344 27.6085C66.4264 27.5441 67.5801 27.5892 68.6829 27.3831C70.0788 27.1255 70.7927 26.0566 70.8119 24.5434C70.831 23.0044 70.1744 21.8969 68.804 21.6136C67.6439 21.3753 66.4264 21.4268 65.2344 21.3496V27.6085Z" fill="#010101"/>
<path id="Vector_2" d="M122.303 25.58C122.335 25.0649 122.36 24.6528 122.398 24.1248C122.825 24.1248 123.195 24.1248 123.571 24.1248C125.126 24.1248 126.682 24.1248 128.294 24.1248V41.002H122.392C122.36 40.4868 122.335 40.0103 122.296 39.3213C120.492 41.2531 118.344 41.8133 115.928 41.4785C113.506 41.1501 111.696 39.8365 110.287 37.8918C107.954 34.6722 108.369 29.2182 111.18 26.1789C114.023 23.0945 117.981 22.8498 122.303 25.58ZM118.695 28.7739C116.585 28.7674 114.953 30.4094 114.94 32.5601C114.928 34.7624 116.559 36.4172 118.727 36.4172C120.798 36.4108 122.513 34.7044 122.526 32.631C122.545 30.506 120.83 28.7803 118.695 28.7739Z" fill="#010101"/>
<path id="Vector_3" d="M156.412 25.6285C156.457 25.0876 156.489 24.6819 156.527 24.199H162.417V40.9989H156.533C156.495 40.4967 156.457 40.0202 156.412 39.3505C154.513 41.411 152.224 41.8425 149.745 41.4304C147.864 41.1213 146.283 40.1683 145.066 38.6808C142.102 35.0426 142.249 29.4148 145.359 26.1372C147.871 23.4842 152.696 22.3509 156.412 25.6285ZM152.938 28.7773C150.777 28.7386 149.107 30.342 149.088 32.4798C149.069 34.7207 150.656 36.3884 152.83 36.4078C154.927 36.4271 156.642 34.7464 156.673 32.6537C156.699 30.5609 155.023 28.8159 152.938 28.7773Z" fill="#010101"/>
<path id="Vector_4" d="M94.9311 41.0307H89.0859V24.2114H94.9247V25.6731C96.2442 25.0743 97.5126 24.2436 98.8958 23.9217C101.12 23.4065 103.237 23.9023 105.009 25.5186C105.939 26.3686 106.539 27.431 106.558 28.6416C106.634 32.7434 106.59 36.8452 106.59 41.0049H100.763C100.763 38.8027 100.783 36.6005 100.757 34.3983C100.744 33.1748 100.751 31.9321 100.579 30.7279C100.362 29.2276 99.6289 28.6609 98.2074 28.5708C96.6521 28.4806 95.6004 29.0859 95.1988 30.4382C95.0139 31.0628 94.9502 31.7453 94.9438 32.4021C94.9183 35.2483 94.9311 38.088 94.9311 41.0307Z" fill="#010101"/>
<path id="Vector_5" d="M138.283 41.026H132.4V29.1585C131.724 29.1198 131.144 29.0812 130.5 29.0426V24.1745C131.093 24.1423 131.635 24.1166 132.317 24.0844V19.1133H138.27V24.1037H141.585V29.0941C140.801 29.0941 140.036 29.1392 139.284 29.0812C138.512 29.0232 138.257 29.2808 138.27 30.0857C138.315 33.3182 138.289 36.5507 138.289 39.7832C138.283 40.1631 138.283 40.543 138.283 41.026Z" fill="#010101"/>
<path id="Vector_6" d="M79.7168 40.9994V24.2188H85.5811V40.9994H79.7168Z" fill="#010101"/>
<path id="Vector_7" d="M85.9507 17.5687C85.9634 19.4297 84.5229 20.9493 82.7062 20.988C80.8704 21.0266 79.2896 19.4554 79.3088 17.6009C79.3279 15.7464 80.8067 14.2525 82.6234 14.2461C84.4655 14.2461 85.9379 15.7207 85.9507 17.5687Z" fill="#010101"/>
<g id="Group_2">
<path id="Vector_8" d="M44.1672 32.4383C44.2054 32.5027 44.2819 32.5607 44.2819 32.6251C44.2819 33.0114 44.5241 33.3012 44.658 33.6296C44.76 33.8936 44.9066 34.1383 45.0468 34.4345C44.9448 34.4474 44.8619 34.4667 44.7855 34.4667C44.6006 34.4731 44.4157 34.4667 44.2373 34.486C44.0014 34.5118 43.8994 34.6599 44.0014 34.8724C44.2245 35.3617 44.4604 35.8382 44.6898 36.3212C44.8046 36.5594 44.9193 36.8041 45.0468 37.0617C44.7918 37.1196 44.5751 37.1647 44.3584 37.2162C44.3074 37.2098 44.25 37.2034 44.199 37.2034C42.325 37.2034 40.4446 37.1969 38.5706 37.1969C38.4941 37.1969 38.4176 37.2098 38.3475 37.2227C38.2455 37.1905 38.1499 37.1325 38.0479 37.1325C36.5563 37.1261 35.0648 37.1196 33.5796 37.1261C33.4776 37.1261 33.3692 37.1647 33.2673 37.1905C33.1079 37.1712 32.9485 37.139 32.7828 37.139C31.6992 37.1261 30.6156 37.1261 29.532 37.1196C29.4236 37.1196 29.3152 37.1003 29.2069 37.1003C28.5567 37.0874 27.9129 37.0295 27.2628 37.139C27.199 37.1196 27.1353 37.1003 27.0779 37.081C26.8739 37.0102 26.8166 36.8943 26.9249 36.714C27.0524 36.495 27.1926 36.289 27.3265 36.0765C27.5942 35.6386 27.8619 35.2008 28.1169 34.7564C28.1743 34.6534 28.1679 34.5182 28.1934 34.3894C27.8109 34.3894 27.4731 34.3894 27.1416 34.3894C27.0588 34.3894 26.9759 34.3701 26.8994 34.3637C26.9185 34.2735 26.9185 34.1705 26.9632 34.0932C27.046 33.9258 27.1608 33.7777 27.25 33.6167C27.4349 33.2883 27.607 32.9535 27.7854 32.6186C28.2508 33.0694 28.7224 33.5266 29.2069 34.0031C29.2898 33.9387 29.379 33.8872 29.4555 33.8099C29.8889 33.3785 30.316 32.947 30.7494 32.5092C30.8259 32.4383 30.9024 32.3675 30.9917 32.2838C31.559 32.8826 32.088 33.475 32.7127 33.9773C33.2991 33.4106 33.8537 32.8633 34.421 32.3095C35.001 32.8955 35.5556 33.4493 36.1357 34.0353C36.7412 33.4106 37.3149 32.8182 37.8439 32.2773C38.4622 32.8698 39.055 33.4364 39.6797 34.0353C40.2534 33.4493 40.8207 32.8698 41.4007 32.2773C41.8979 32.786 42.3505 33.3141 42.8987 33.7133C43.3321 33.269 43.7465 32.8569 44.1672 32.4383Z" fill="#FCD701"/>
<path id="Vector_9" d="M44.0983 23.7646C43.907 23.7968 43.7158 23.8225 43.531 23.8547C43.1485 23.8418 42.7724 23.8161 42.39 23.8161C40.1399 23.8161 37.8834 23.8161 35.6333 23.8161C35.2827 23.8161 34.9385 23.8161 34.5879 23.8161C34.4413 23.6873 34.2692 23.6358 34.078 23.6551C34.0015 23.6615 33.925 23.6615 33.8485 23.6551C33.6254 23.6294 33.5808 23.5328 33.6828 23.3138C33.7975 23.082 33.9441 22.8566 34.0461 22.6184C34.3075 22.0195 34.5561 21.4207 34.8174 20.8154C34.4859 20.6287 34.1354 20.7639 33.772 20.6737C33.8039 20.5772 33.8294 20.487 33.8677 20.4033C34.3648 19.3859 34.8684 18.3621 35.3656 17.3447C35.4994 17.0678 35.6269 16.7909 35.7608 16.5204C35.8118 16.4239 35.8819 16.3401 35.9393 16.25C36.0158 16.2629 36.0923 16.2693 36.1624 16.2886C37.4181 16.5848 38.6738 16.881 39.9359 17.1708C40.3184 17.2545 40.7008 17.3125 41.0833 17.3833C41.3892 17.4541 41.6952 17.5185 42.0011 17.5894C42.3517 17.8534 42.7788 17.8727 43.1867 17.9242C43.2377 17.9306 43.2887 17.95 43.3397 17.9628C43.5437 18.0208 43.7477 18.0787 43.958 18.1303C44.1939 18.1882 44.4361 18.2268 44.6783 18.2784C44.6911 18.3556 44.7102 18.4329 44.7102 18.5037C44.7038 19.373 44.6911 20.2359 44.6847 21.1052C44.6847 21.234 44.6783 21.3692 44.6911 21.498C44.7612 22.1934 44.7038 22.8953 44.6592 23.5907C44.6273 23.565 44.5954 23.5263 44.5572 23.507C43.9771 23.2559 43.4035 23.0047 42.817 22.7601C42.7214 22.7214 42.6131 22.7085 42.5238 22.6828C42.4091 22.8244 42.4282 22.9339 42.5302 23.0241C42.6003 23.0885 42.6832 23.1464 42.7724 23.185C43.2186 23.3911 43.6584 23.5778 44.0983 23.7646ZM41.3446 18.8708C41.2809 18.8708 41.2107 18.8643 41.147 18.8708C40.8347 18.9158 40.5223 18.9609 40.2929 19.2185C39.8722 19.695 39.8977 20.5256 40.3502 20.9828C40.6689 21.3112 41.0578 21.337 41.4912 21.2984C42.1414 21.2404 42.5812 20.5321 42.5302 19.9976C42.4665 19.3279 42.0011 18.8643 41.3446 18.8708Z" fill="#FCD703"/>
<path id="Vector_10" d="M33.6439 29.1854C35.1737 29.1919 36.7036 29.1983 38.2397 29.1983C40.0118 29.1983 41.7774 29.1983 43.5495 29.2047C43.8873 29.9968 44.2315 30.7824 44.5757 31.5873C44.359 31.6967 44.0913 31.6066 43.9893 31.8577C43.8299 31.774 43.7152 31.8706 43.6132 31.9672C43.4475 32.1153 43.3072 32.2763 43.1479 32.4308C43.0586 32.5209 42.9567 32.5982 42.8483 32.6884C42.7081 32.5467 42.587 32.4372 42.4722 32.3213C42.2045 32.0444 41.9432 31.7676 41.6754 31.4907C41.4778 31.2846 41.4205 31.2782 41.2165 31.4714C40.834 31.8255 40.458 32.199 40.0819 32.5596C39.9417 32.6948 39.8014 32.8236 39.6612 32.9524C39.0684 32.3922 38.5011 31.8577 37.9083 31.2975C37.3282 31.8835 36.7609 32.4501 36.1681 33.0425C35.5944 32.4437 35.059 31.8577 34.4535 31.3039C34.224 31.5229 34.02 31.716 33.816 31.9157C33.5101 32.2119 33.2105 32.5145 32.8982 32.8043C32.7133 32.9781 32.6623 32.9717 32.4902 32.7978C32.0568 32.3664 31.6297 31.9221 31.2026 31.4907C31.1452 31.4327 31.0751 31.3812 30.9923 31.3104C30.7819 31.4907 30.5779 31.6581 30.3931 31.8384C30.0553 32.1603 29.7238 32.4952 29.3923 32.83C29.2967 32.9266 29.2011 32.9846 29.0864 32.8687C28.7868 32.566 28.4936 32.2634 28.194 31.9607C28.2577 31.8577 28.4681 31.8319 28.4043 31.6645C28.347 31.5035 28.1685 31.5422 28.0346 31.5357C27.8115 31.5357 27.5821 31.5357 27.3398 31.5357C27.3653 31.1558 27.5693 30.8918 27.7032 30.6021C27.8944 30.1835 28.1239 29.7843 28.3151 29.3722C28.3533 29.2885 28.3278 29.1725 28.3342 29.0695C28.4362 28.9472 28.5318 28.8313 28.6338 28.7089C29.3413 28.6703 30.0425 28.7089 30.7309 28.8892C30.9476 28.9472 31.1835 28.9472 31.4066 28.9729C31.8209 29.018 32.2416 29.0373 32.6496 29.1597C32.9619 29.2305 33.3125 29.179 33.6439 29.1854Z" fill="#FCD901"/>
<path id="Vector_11" d="M27.2571 37.1306C27.9009 37.0147 28.5511 37.0791 29.2012 37.0919C29.3096 37.0919 29.418 37.1113 29.5263 37.1113C30.6099 37.1177 31.6936 37.1241 32.7772 37.1306C32.9365 37.1306 33.0959 37.1628 33.2616 37.1821C33.4656 37.9612 33.6696 38.7404 33.8608 39.526C33.9245 39.7835 33.899 39.79 33.6377 39.835C33.5357 39.8544 33.4337 39.8801 33.2999 39.9123C33.4465 40.8009 33.7652 41.6251 33.9118 42.5331C33.5931 42.5331 33.3126 42.5331 33.0385 42.5331C32.8282 42.5331 32.6242 42.5395 32.4138 42.5395C30.8713 42.5395 29.3224 42.5395 27.7798 42.5395C27.7607 42.5395 27.7415 42.5331 27.7224 42.5331C27.4292 42.5266 27.136 42.5266 26.8428 42.5138C26.6962 42.5073 26.5496 42.4751 26.3711 42.4494C26.7089 41.5543 27.0659 40.7108 27.289 39.7642C26.9766 39.7385 26.7026 39.7191 26.4157 39.6998C26.6707 38.9593 26.9129 38.2446 27.1551 37.5362C27.187 37.4075 27.2189 37.2658 27.2571 37.1306Z" fill="#CC428B"/>
<path id="Vector_12" d="M38.3425 37.2133C38.419 37.2068 38.4955 37.1875 38.5656 37.1875C40.4396 37.1875 42.32 37.1939 44.1941 37.1939C44.245 37.1939 44.3024 37.2004 44.3534 37.2068C44.5255 37.8958 44.6912 38.5784 44.8633 39.2674C44.9016 39.4155 44.9271 39.5636 44.9653 39.7439C44.7805 39.7825 44.6148 39.8147 44.4235 39.8533C44.3662 40.0787 44.4618 40.3105 44.5128 40.5359C44.6339 41.0768 44.7805 41.6177 44.9143 42.1586C44.9335 42.2423 44.9335 42.326 44.9526 42.4355C44.5638 42.5964 44.1686 42.4999 43.7861 42.5385C42.1224 42.5385 40.4588 42.5385 38.7887 42.5385C38.4126 42.5192 38.0302 42.4999 37.6541 42.4741C37.584 42.4677 37.5203 42.429 37.4629 42.4097C37.7752 41.5404 38.0748 40.6904 38.3999 39.7761C38.0429 39.7632 37.7497 39.7568 37.4693 39.7503C37.7689 38.881 38.0557 38.0439 38.3425 37.2133Z" fill="#CC418B"/>
<path id="Vector_13" d="M41.0952 17.3877C40.7127 17.3169 40.3239 17.2589 39.9478 17.1752C38.6857 16.8854 37.43 16.5892 36.1743 16.293C36.0978 16.2737 36.0213 16.2673 35.9512 16.2544C36.0468 15.9904 36.1169 15.7135 36.2316 15.4559C36.8691 14.0779 37.5065 12.6935 38.1758 11.3284C38.5009 10.6716 38.8833 10.047 39.4187 9.52541C39.5144 9.43526 39.61 9.34511 39.7056 9.2614C40.1836 8.82354 40.7446 8.9974 41.1143 9.33224C41.4776 9.6542 41.637 10.0792 41.6688 10.5557C41.6816 10.7553 41.6688 10.9549 41.6816 11.1481C41.688 11.2511 41.7326 11.3542 41.7581 11.4572C41.7326 11.6954 41.7071 11.9272 41.6816 12.1655C41.6178 12.7772 41.5541 13.3954 41.4904 14.0071C41.4457 14.4579 41.4011 14.915 41.3501 15.3658C41.2673 16.0419 41.178 16.7116 41.0952 17.3877Z" fill="#2CB8D2"/>
<path id="Vector_14" d="M41.0957 17.3872C41.1786 16.7111 41.2678 16.035 41.3507 15.3588C41.4017 14.9081 41.4463 14.4509 41.4909 14.0002C41.5546 13.3884 41.6184 12.7703 41.6821 12.1585C41.7076 11.9203 41.7331 11.6885 41.7586 11.4502C42.1538 11.1798 42.5426 10.9029 42.9378 10.6325C43.3394 10.362 43.7856 10.1946 44.2573 10.1109C44.3402 10.098 44.4294 10.0851 44.5123 10.0916C45.1688 10.1688 45.717 10.9737 45.5704 11.6177C45.4302 12.2487 45.137 12.8025 44.8055 13.3498C44.0406 14.6248 43.2119 15.8547 42.3259 17.0524C42.2048 17.2198 42.1156 17.4065 42.0072 17.5804C41.7076 17.5224 41.4017 17.458 41.0957 17.3872Z" fill="#0D869D"/>
<path id="Vector_15" d="M28.1936 31.9406C28.4932 32.2432 28.7864 32.5459 29.086 32.8485C29.2007 32.9644 29.2964 32.9065 29.392 32.8099C29.7234 32.475 30.0549 32.1466 30.3927 31.8182C30.5776 31.6379 30.7815 31.477 30.9919 31.2902C31.0748 31.3611 31.1449 31.4126 31.2022 31.4705C31.6293 31.9084 32.0564 32.3463 32.4898 32.7777C32.6619 32.9515 32.7129 32.958 32.8978 32.7841C33.2101 32.4944 33.5097 32.1917 33.8157 31.8955C34.0196 31.6959 34.2236 31.5027 34.4531 31.2838C35.0586 31.8311 35.5877 32.4171 36.1678 33.0224C36.7542 32.43 37.3215 31.8633 37.9079 31.2773C38.5007 31.8376 39.068 32.372 39.6608 32.9322C39.8011 32.797 39.9413 32.6682 40.0815 32.5394C40.4576 32.1788 40.8337 31.8054 41.2161 31.4512C41.4265 31.258 41.4775 31.2709 41.6751 31.4705C41.9428 31.741 42.2041 32.0243 42.4718 32.3012C42.5866 32.4171 42.7013 32.5266 42.8479 32.6682C42.9563 32.5781 43.0583 32.5008 43.1475 32.4106C43.3069 32.2561 43.4471 32.0951 43.6128 31.947C43.7148 31.8569 43.8296 31.7603 43.9889 31.8376C44.0526 32.0307 44.11 32.2303 44.1738 32.4235C43.7594 32.8356 43.3387 33.2542 42.8925 33.6921C42.3444 33.2928 41.8918 32.7648 41.3946 32.2561C40.8146 32.855 40.2472 33.4345 39.6736 34.014C39.0489 33.4152 38.4625 32.8485 37.8378 32.2561C37.3087 32.797 36.7414 33.3894 36.1295 34.014C35.5431 33.428 34.9949 32.8743 34.4148 32.2883C33.8475 32.8421 33.2866 33.383 32.7066 33.9561C32.0819 33.4538 31.5528 32.8614 30.9855 32.2625C30.8963 32.3463 30.8198 32.4106 30.7433 32.4879C30.3099 32.9193 29.8828 33.3572 29.4493 33.7886C29.3728 33.8595 29.2836 33.9174 29.2007 33.9818C28.7099 33.5053 28.2446 33.0546 27.7793 32.5974C27.8622 32.3527 27.9387 32.0887 28.1936 31.9406Z" fill="#120E05"/>
<path id="Vector_16" d="M44.6719 23.5936C44.7229 22.8982 44.7802 22.2027 44.7037 21.5009C44.691 21.3721 44.6974 21.2369 44.6974 21.1081C44.7037 20.2388 44.7165 19.3759 44.7229 18.5066C44.7229 18.4294 44.7037 18.3521 44.691 18.2812C44.9013 18.3199 45.1181 18.3392 45.3157 18.4036C46.412 18.7578 47.4447 19.2278 48.2414 20.11C48.6494 20.5607 48.8534 21.0823 48.7386 21.7005C48.6621 22.0997 48.4518 22.4346 48.1458 22.6921C47.553 23.1815 46.8774 23.4777 46.1188 23.6C45.7045 23.6644 45.2838 23.7353 44.8695 23.7932C44.8057 23.7997 44.742 23.7868 44.6782 23.7803C44.6719 23.716 44.6719 23.658 44.6719 23.5936Z" fill="#D0468F"/>
<path id="Vector_17" d="M38.794 42.5391C40.4577 42.5391 42.1213 42.5391 43.7914 42.5391C43.785 42.9125 43.7722 43.286 43.7786 43.653C43.7977 44.6125 43.4025 45.3401 42.6249 45.8746C41.7198 46.5056 40.4895 46.3962 39.6481 45.6363C39.0936 45.1341 38.845 44.5095 38.8067 43.7818C38.7876 43.3697 38.794 42.9512 38.794 42.5391Z" fill="#6A489D"/>
<path id="Vector_18" d="M28.6339 28.6867C28.5319 28.8091 28.4363 28.925 28.3343 29.0473C26.83 29.5882 26.1225 30.7215 26.0014 32.2991C25.6826 32.2991 25.3831 32.2991 25.0452 32.2991C24.9942 30.5992 25.5934 29.2856 27.1232 28.5C27.1105 28.4549 27.1105 28.4227 27.0977 28.4163C26.3519 28.0492 25.8101 27.972 25.0452 28.5644C24.9942 28.603 24.9496 28.6545 24.8922 28.6931C24.7648 28.7704 24.6755 28.9443 24.497 28.8734C24.2739 28.7769 24.0955 28.603 24.0062 28.3712C23.9807 28.3068 24.0381 28.1716 24.0955 28.1136C24.7201 27.4697 25.4595 27.1027 26.3711 27.2186C26.7153 27.2636 27.0531 27.3538 27.3909 27.4117C27.4738 27.4246 27.5567 27.4246 27.6969 27.4375C27.4993 26.8 27.1487 26.3621 26.626 26.0402C26.1097 25.7182 25.5233 25.6667 24.8922 25.641C24.905 25.3641 24.9114 25.1001 24.9369 24.8489C24.9496 24.7201 25.0325 24.6171 25.1791 24.63C25.9886 24.7201 26.7981 24.8167 27.4802 25.3383C28.0092 25.7375 28.2833 26.3042 28.4809 26.9224C28.6721 27.4826 28.6913 28.0814 28.6339 28.6867Z" fill="#744CA9"/>
<path id="Vector_19" d="M43.5373 26.4938C43.7285 27.421 44.1046 28.2323 44.3405 29.1338C44.1747 29.1467 44.0536 29.1532 43.9261 29.166C43.7986 29.1789 43.6775 29.1918 43.5437 29.2047H38.234C36.7042 29.1918 35.1743 29.1918 33.6445 29.1853C33.6573 28.8183 33.8549 28.5092 33.9824 28.1679C34.1353 27.7043 34.3329 27.2471 34.5178 26.7964C34.5433 26.7191 34.5433 26.629 34.5752 26.5066H33.6955C33.6637 26.2555 34.0971 25.0192 34.4923 24.1949C34.5305 24.0662 34.556 23.9438 34.6007 23.815C34.9449 23.8086 35.2891 23.8086 35.646 23.8086C37.8961 23.8086 40.1526 23.8086 42.3963 23.815C42.7788 23.815 43.1612 23.8344 43.5373 23.8472C43.5947 24.0533 43.652 24.2658 43.7094 24.4654C43.9325 25.1222 44.1492 25.779 44.3978 26.4938H43.5373Z" fill="#2AB6D0"/>
<path id="Vector_20" d="M44.6708 23.5968C44.6708 23.6612 44.6708 23.7191 44.6708 23.7835C44.4795 23.7771 44.2883 23.7707 44.0971 23.7642C43.6573 23.5775 43.2174 23.3907 42.784 23.1976C42.6947 23.1589 42.6119 23.101 42.5418 23.0366C42.4398 22.9464 42.4207 22.837 42.5354 22.6953C42.6246 22.7211 42.733 22.7339 42.8286 22.7726C43.4087 23.0173 43.9887 23.2684 44.5688 23.5195C44.607 23.5324 44.6389 23.571 44.6708 23.5968Z" fill="#1C150F"/>
<path id="Vector_21" d="M41.3449 18.8688C42.0014 18.8624 42.4667 19.326 42.5305 20.0021C42.5815 20.5366 42.1416 21.2449 41.4915 21.3028C41.058 21.3415 40.6692 21.3157 40.3505 20.9873C39.8979 20.5301 39.8788 19.6995 40.2931 19.223C40.5226 18.9654 40.8349 18.9203 41.1473 18.8752C41.211 18.8624 41.2811 18.8688 41.3449 18.8688ZM41.8293 20.1051C41.8229 19.7252 41.5935 19.4612 41.2748 19.4741C40.956 19.4805 40.6437 19.7896 40.6565 20.0729C40.6692 20.4464 40.9305 20.7104 41.2684 20.704C41.5743 20.6975 41.8293 20.4207 41.8293 20.1051Z" fill="#FAF9F5"/>
<g id="Group_3">
<path id="Vector_22" d="M32.7206 42.9395C32.7397 43.4803 32.7397 44.0148 32.5867 44.5235C32.4592 44.9227 32.268 45.2769 31.9174 45.5216L31.911 45.5345C31.8154 45.6182 31.7262 45.7083 31.6306 45.7985C31.6114 45.8049 31.5859 45.8242 31.5668 45.8435C31.5158 45.8693 31.4776 45.9144 31.433 45.9401C30.7828 46.378 30.1135 46.4038 29.3868 46.1333C28.8323 45.9273 28.4498 45.5602 28.1247 45.0902C27.8252 44.678 27.7359 44.2015 27.7295 43.7186C27.7168 43.3194 27.7168 42.9266 27.7168 42.5273C27.7359 42.5273 27.755 42.5402 27.7742 42.5402H32.4018C32.6122 42.5402 32.8225 42.5273 33.0329 42.5273C32.9373 42.5467 32.848 42.5789 32.7142 42.6046V42.9395H32.7206Z" fill="#6A489D"/>
</g>
<path id="Vector_23" d="M41.828 20.1042C41.8344 20.4197 41.5731 20.6966 41.2607 20.703C40.9293 20.7094 40.6679 20.439 40.6488 20.072C40.6361 19.7822 40.9484 19.4795 41.2671 19.4731C41.5922 19.4602 41.8217 19.7242 41.828 20.1042Z" fill="#110C0B"/>
</g>
</g>
</g>
</svg>
