<?xml version="1.0" standalone="no"?>
<!DOCTYPE svg PUBLIC "-//W3C//DTD SVG 20010904//EN"
 "http://www.w3.org/TR/2001/REC-SVG-20010904/DTD/svg10.dtd">
<svg version="1.0" xmlns="http://www.w3.org/2000/svg"
 width="474.000000pt" height="346.000000pt" viewBox="0 0 474.000000 346.000000"
 preserveAspectRatio="xMidYMid meet">

<g transform="translate(0.000000,346.000000) scale(0.100000,-0.100000)"
fill="#000000" stroke="none">
<path d="M2148 2529 c-164 -24 -312 -101 -439 -229 -71 -71 -94 -103 -133
-181 -65 -134 -81 -199 -81 -349 0 -146 16 -216 74 -335 63 -127 192 -267 297
-321 30 -16 60 -11 48 7 -4 8 -3 9 5 5 9 -6 9 -11 0 -22 -9 -11 -7 -15 7 -20
11 -3 26 -9 35 -14 9 -4 21 -5 28 0 8 4 2 9 -18 13 -17 4 -31 11 -31 16 0 5
10 6 23 3 20 -5 20 -4 7 10 -9 8 -22 17 -30 20 -12 5 -11 7 4 13 10 4 21 4 25
-1 3 -5 21 -2 41 8 19 10 29 18 22 18 -7 0 -11 3 -8 8 2 4 -26 24 -63 44 -81
45 -181 143 -234 230 -193 319 -46 750 303 888 28 11 90 27 138 35 70 12 91
20 110 41 30 34 28 60 -7 95 -31 31 -34 31 -123 18z m-157 -1339 c6 0 8 -4 5
-9 -4 -5 0 -12 6 -14 7 -3 0 -6 -17 -6 -21 0 -26 2 -16 8 11 7 10 11 -5 21
-18 11 -18 11 -1 6 10 -3 23 -6 28 -6z"/>
</g>
</svg>
