<svg width="188" height="38" viewBox="0 0 188 38" fill="none" xmlns="http://www.w3.org/2000/svg">
<g id="Group 1000020861">
<path id="Vector" d="M27.8505 26.0907C27.7064 19.0809 24.6283 12.7326 19.7205 8.10051C14.7314 12.6356 11.5208 18.9221 11.2394 25.9278C11.2276 26.2568 11.4292 26.5317 11.7259 26.655C11.8276 26.6962 11.9295 26.7212 12.0486 26.7224L27.0258 26.8693C27.4768 26.8737 27.8546 26.5242 27.8505 26.0907Z" fill="white"/>
<path id="Vector_2" opacity="0.77" d="M27.8854 26.0988C28.3447 20.9253 32.7764 16.8263 38.2689 16.4949C38.7288 16.4673 39.0981 16.1257 39.1023 15.6922L39.2409 1.56434C39.2452 1.13087 38.8741 0.782029 38.423 0.785633C31.1708 0.915198 24.599 3.67659 19.7216 8.10033C24.6208 12.7324 27.699 19.0805 27.843 26.0904L27.8854 26.0988Z" fill="white"/>
<path id="Vector_3" opacity="0.62" d="M11.2061 25.9347C10.8483 20.7531 6.49793 16.568 1.01291 16.1288C0.553701 16.0923 0.191167 15.7435 0.195419 15.31L0.333993 1.18213C0.338245 0.748657 0.71606 0.40716 1.167 0.419611C8.41534 0.691406 14.9317 3.58117 19.7213 8.09973C14.7322 12.6348 11.5301 18.9214 11.2486 25.927L11.2061 25.9347Z" fill="white"/>
<path id="Vector_4" d="M71.0408 17.5866C71.0204 19.6664 70.6131 21.4794 69.8377 23.0186C69.0625 24.5578 67.9366 25.7331 66.4814 26.5205C65.0261 27.3077 63.306 27.7019 61.2921 27.6822C58.2376 27.6522 55.8895 26.745 54.2477 24.9606C52.6059 23.1763 51.7971 20.696 51.8213 17.5201C51.8409 15.523 52.2642 13.7701 53.1104 12.2298C53.8662 10.7942 55.0691 9.58841 56.5727 8.75906C58.0384 7.97188 59.7312 7.59615 61.6389 7.61486C64.6607 7.6445 66.9846 8.55145 68.6106 10.3113C70.2989 12.0962 71.0708 14.5252 71.0408 17.5866ZM67.1167 17.597C67.162 12.9814 65.31 10.6712 61.5468 10.6343C59.6912 10.6161 58.2545 11.2084 57.2533 12.4263C56.2519 13.644 55.7397 15.3247 55.7186 17.4796C55.6961 19.7713 56.1722 21.5612 57.1241 22.8301C58.076 24.099 59.4922 24.753 61.3123 24.7709C63.2033 24.7894 64.64 24.1972 65.6058 22.979C66.5717 21.7608 67.0934 19.9714 67.1167 17.597Z" fill="white"/>
<path id="Vector_5" d="M75.6751 8.13701C75.9214 8.11362 76.1692 8.10539 76.4168 8.11237C77.1059 8.09571 77.7821 8.28664 78.3381 8.65494C78.8304 9.0033 79.1065 9.52974 79.1893 10.2026C80.0371 9.43539 81.0628 8.84677 82.1931 8.47875C83.414 8.06593 84.7118 7.86775 86.0165 7.89492C87.7826 7.91224 89.2285 8.28684 90.3522 9.03371C91.4758 9.78059 92.209 10.8371 92.5662 12.2147C92.7674 12.9375 92.8469 14.1829 92.8297 15.934L92.7171 27.4081L89.0059 27.3717L89.1173 16.0121C89.1303 14.687 89.052 13.759 88.8801 13.2279C88.7933 12.8825 88.6294 12.5567 88.3984 12.2701C88.1673 11.9835 87.8741 11.7422 87.5365 11.5609C86.8671 11.2108 85.9504 11.0216 84.7842 11.0102C83.8282 10.9843 82.8753 11.1136 81.9707 11.3918C81.2346 11.5928 80.5637 11.9515 80.0151 12.437C79.5868 12.7984 79.3293 13.2944 79.2954 13.8228L79.1635 27.2771L75.4523 27.2407L75.6397 8.13666L75.6751 8.13701Z" fill="white"/>
<path id="Vector_6" d="M98.4555 8.36125C98.7139 8.33955 98.9733 8.33144 99.2327 8.33695C99.9218 8.32029 100.598 8.51122 101.154 8.87953C101.403 9.06333 101.607 9.29092 101.755 9.54834C101.903 9.80577 101.991 10.0876 102.014 10.3766C102.527 9.67362 103.224 9.09571 104.045 8.69388C104.861 8.28023 105.783 8.06424 106.721 8.06688C107.656 8.07605 108.398 8.22975 108.978 8.53016C109.239 8.64824 109.458 8.83103 109.608 9.057C109.757 9.28295 109.832 9.54267 109.824 9.80554C109.795 10.2426 109.689 10.6725 109.509 11.0789C109.304 11.5469 109.051 11.9968 108.754 12.4231C108.386 12.0906 107.95 11.8251 107.471 11.6409C106.965 11.4645 106.427 11.3757 105.885 11.3794C104.93 11.3594 104 11.6465 103.261 12.189C102.495 12.7446 102.118 13.3567 102.111 14.0549L101.98 27.4773L98.2684 27.4409L98.4555 8.36125Z" fill="white"/>
<path id="Vector_7" d="M113.893 12.8335C113.661 12.4744 113.469 12.0952 113.322 11.7016C113.186 11.3918 113.105 11.0647 113.083 10.7325C113.087 10.2745 113.481 9.85226 114.281 9.45089C115.207 9.00685 116.205 8.69554 117.237 8.52816C118.396 8.31406 119.578 8.21176 120.762 8.22296C123.501 8.24983 125.475 8.80982 126.683 9.90292C127.891 10.9941 128.492 12.8172 128.467 15.3642L128.389 23.3358C128.366 23.911 128.402 24.487 128.497 25.0563C128.58 25.4495 128.739 25.712 128.983 25.8626C129.228 26.0134 129.724 26.0989 130.484 26.1064L130.468 27.7262C129.774 27.913 129.051 28.0003 128.326 27.9849C126.171 27.9638 125.002 27.1827 124.808 25.6415C123.964 26.4398 122.94 27.066 121.804 27.478C120.637 27.8618 119.4 28.044 118.158 28.0147C116.09 27.9944 114.488 27.4888 113.347 26.5109C112.207 25.5329 111.638 24.1213 111.656 22.2875C111.677 20.1271 112.685 18.4832 114.656 17.3236C116.626 16.1642 119.393 15.553 122.946 15.4902C123.813 15.4987 124.431 15.5199 124.783 15.5402L124.789 14.9377C124.802 13.5956 124.459 12.6274 123.741 12.0629C123.021 11.4982 121.874 11.1942 120.285 11.1786C119.246 11.16 118.208 11.2762 117.206 11.5238C116.175 11.8232 115.205 12.272 114.335 12.8528L113.893 12.8316L113.893 12.8335ZM124.799 18.1139L123.527 18.1015C120.875 18.0755 118.858 18.3998 117.478 19.0745C116.096 19.7494 115.396 20.7574 115.375 22.0987C115.365 23.0973 115.677 23.8531 116.289 24.3997C116.903 24.9464 117.838 25.1996 119.056 25.2115C120.008 25.2237 120.952 25.0678 121.837 24.7526C122.629 24.489 123.353 24.0822 123.963 23.5571C124.499 23.0723 124.749 22.6262 124.753 22.2395L124.794 18.1101L124.799 18.1139Z" fill="white"/>
<path id="Vector_8" d="M134.438 8.71414C134.715 8.69175 134.993 8.68381 135.27 8.69039C136.897 8.70634 137.809 9.40359 138.008 10.7821C138.82 10.0205 139.809 9.43136 140.905 9.05728C142.055 8.64792 143.285 8.44817 144.522 8.46953C145.7 8.47624 146.863 8.7171 147.928 9.17496C148.89 9.56037 149.693 10.2094 150.224 11.0296C151.047 10.2332 152.063 9.61664 153.192 9.2266C154.377 8.79282 155.649 8.57682 156.929 8.59122C158.678 8.60838 160.089 8.99765 161.194 9.74622C162.299 10.4948 162.996 11.5491 163.302 12.8942C163.502 13.6152 163.582 14.8605 163.565 16.6118L163.452 28.0877L159.743 28.0513L159.854 16.6898C159.859 16.1831 159.864 15.6913 159.853 15.2182C159.852 14.7711 159.773 14.3268 159.617 13.9019C159.544 13.5604 159.392 13.2362 159.173 12.9495C158.955 12.6628 158.672 12.4198 158.345 12.2356C157.695 11.8856 156.758 11.6963 155.538 11.6843C154.647 11.683 153.766 11.8529 152.955 12.1827C152.195 12.4626 151.519 12.8989 150.98 13.4567C151.1 14.4546 151.148 15.4583 151.126 16.4616L151.013 27.9844L147.308 27.948L147.419 16.5848C147.432 15.3254 147.318 14.3312 147.061 13.6341C146.578 12.2866 145.277 11.6031 143.157 11.5835C141.935 11.5611 140.733 11.8563 139.693 12.4336C138.647 13.0128 138.109 13.6458 138.102 14.3159L137.969 27.8527L134.267 27.8164L134.454 8.7143L134.438 8.71414Z" fill="white"/>
<path id="Vector_9" d="M169.163 9.0543C169.439 9.03071 169.718 9.0228 169.996 9.03056C171.569 9.04598 172.489 9.71015 172.823 11.0049C173.493 10.2697 174.358 9.69744 175.338 9.34013C176.461 8.94533 177.663 8.75919 178.869 8.79284C181.519 8.81884 183.566 9.673 185.011 11.3554C186.453 13.0383 187.181 15.4519 187.151 18.579C187.128 20.8315 186.756 22.7049 186.017 24.2145C185.277 25.7239 184.259 26.8835 182.907 27.6887C181.514 28.4907 179.883 28.8965 178.229 28.8535C177.098 28.8586 175.98 28.6466 174.946 28.2319C174.068 27.8976 173.301 27.3658 172.716 26.6876L172.616 36.9191L168.907 36.8827L169.163 9.0543ZM172.731 23.5942C173.29 24.2774 174.016 24.8342 174.855 25.22C175.711 25.6381 176.667 25.8608 177.64 25.8687C179.408 25.886 180.769 25.2931 181.722 24.0916C182.676 22.8902 183.149 21.1021 183.173 18.7352C183.218 14.0715 181.391 11.7241 177.691 11.6928C176.331 11.6794 175.189 11.9292 174.236 12.4604C173.284 12.9917 172.829 13.6255 172.822 14.3951L172.732 23.5923L172.731 23.5942Z" fill="white"/>
</g>
</svg>
